<?xml version="1.0" encoding="utf-8"?>
<!-- Generator: Adobe Illustrator 25.4.1, SVG Export Plug-In . SVG Version: 6.00 Build 0)  -->
<svg version="1.1" id="Layer_1" xmlns="http://www.w3.org/2000/svg" xmlns:xlink="http://www.w3.org/1999/xlink" x="0px" y="0px"
	 viewBox="0 0 198.1 41" style="enable-background:new 0 0 198.1 41;" xml:space="preserve">
<style type="text/css">
	.st0{fill:#FFFFFF;}
	.st1{fill:#FF0000;}
</style>
<rect x="2.2" y="2.8" class="st0" width="86.9" height="37.2"/>
<g>
	<g>
		<path class="st0" d="M125.1,19.7v17.7h-3.6c-0.3-1.2-0.6-2.5-1.1-3.8c-2.4,2.9-5.4,4.3-9.1,4.3c-4.3,0-7.7-1.5-10.2-4.6
			c-2.4-3.1-3.6-7.1-3.6-12c0-5.3,1.3-9.5,3.9-12.7c2.6-3.2,6.1-4.8,10.5-4.8c3.7,0,6.7,1,9,3.1c2.3,2.1,3.7,4.8,4.2,8.3l-7.4,1
			c-0.6-4-2.5-6-5.7-6c-2.1,0-3.7,0.9-4.8,2.8c-1.1,1.9-1.6,4.6-1.6,8.1c0,3.4,0.6,6,1.8,7.8c1.2,1.8,2.8,2.7,5,2.7
			c1.4,0,2.7-0.5,3.7-1.4c1.1-0.9,1.6-2.4,1.6-4.3h-6.3v-6.2H125.1z"/>
		<path class="st0" d="M138.5,24.3v13.1h-7.9V4.3h14.7c2.7,0,4.9,0.3,6.5,0.9c1.6,0.6,3,1.8,4.1,3.4c1.1,1.7,1.6,3.5,1.6,5.5
			c0,4-1.9,6.8-5.8,8.5l6.2,14.6h-8.6l-5.1-13.1H138.5z M138.5,10.2v8.4h4.8c1.6,0,2.7-0.1,3.4-0.3c0.7-0.2,1.3-0.7,1.9-1.5
			c0.6-0.8,0.8-1.6,0.8-2.6c0-0.9-0.3-1.7-0.8-2.5c-0.6-0.7-1.2-1.2-1.8-1.3c-0.7-0.2-1.9-0.3-3.7-0.3H138.5z"/>
		<path class="st0" d="M170.7,4.3v33.1h-7.8V4.3H170.7z"/>
		<path class="st0" d="M184.7,30.9h13.3v6.5h-21.2V4.3h7.9V30.9z"/>
	</g>
	<path class="st1" d="M0.1,0.5v41.7h91.2V0.5H0.1z M28.8,11.2H12.9V18h12.5v6.2H12.9v7.2h15.9V38H5V4.9h23.8V11.2z M71.2,38h-7.9V11
		L55,38h-5.3l-8.2-27v27h-6.5V4.9H47l5.9,19.8L59,4.9h12.2V38z M87,38h-7.8V4.9H87V38z"/>
</g>
</svg>
