<?xml version="1.0" encoding="utf-8"?>
<!-- Generator: Adobe Illustrator 27.2.0, SVG Export Plug-In . SVG Version: 6.00 Build 0)  -->
<svg version="1.1" id="Layer_1" xmlns="http://www.w3.org/2000/svg" xmlns:xlink="http://www.w3.org/1999/xlink" x="0px" y="0px"
	 viewBox="0 0 200 42.5" style="enable-background:new 0 0 200 42.5;" xml:space="preserve">
<style type="text/css">
	.st0{fill:#FFFFFF;}
	.st1{fill:#EE7828;}
</style>
<rect x="3.1" y="2.8" class="st0" width="86.9" height="37.2"/>
<g>
	<g>
		<path class="st0" d="M126,19.7v17.7h-3.6c-0.3-1.2-0.6-2.5-1.1-3.8c-2.4,2.9-5.4,4.3-9.1,4.3c-4.3,0-7.7-1.5-10.2-4.6
			c-2.4-3.1-3.6-7.1-3.6-12c0-5.3,1.3-9.5,3.9-12.7s6.1-4.8,10.5-4.8c3.7,0,6.7,1,9,3.1s3.7,4.8,4.2,8.3l-7.4,1c-0.6-4-2.5-6-5.7-6
			c-2.1,0-3.7,0.9-4.8,2.8c-1.1,1.9-1.6,4.6-1.6,8.1c0,3.4,0.6,6,1.8,7.8c1.2,1.8,2.8,2.7,5,2.7c1.4,0,2.7-0.5,3.7-1.4
			c1.1-0.9,1.6-2.4,1.6-4.3h-6.3v-6.2H126z"/>
		<path class="st0" d="M139.4,24.3v13.1h-7.9V4.3h14.7c2.7,0,4.9,0.3,6.5,0.9s3,1.8,4.1,3.4c1.1,1.7,1.6,3.5,1.6,5.5
			c0,4-1.9,6.8-5.8,8.5l6.2,14.6h-8.6l-5.1-13.1h-5.7V24.3z M139.4,10.2v8.4h4.8c1.6,0,2.7-0.1,3.4-0.3c0.7-0.2,1.3-0.7,1.9-1.5
			c0.6-0.8,0.8-1.6,0.8-2.6c0-0.9-0.3-1.7-0.8-2.5c-0.6-0.7-1.2-1.2-1.8-1.3c-0.7-0.2-1.9-0.3-3.7-0.3h-4.6V10.2z"/>
		<path class="st0" d="M171.6,4.3v33.1h-7.8V4.3H171.6z"/>
		<path class="st0" d="M185.6,30.9h13.3v6.5h-21.2V4.3h7.9V30.9z"/>
	</g>
	<path class="st1" d="M1,0.5v41.7h91.2V0.5H1z M29.7,11.2H13.8V18h12.5v6.2H13.8v7.2h15.9V38H5.9V4.9h23.8V11.2z M72.1,38h-7.9V11
		l-8.3,27h-5.3l-8.2-27v27h-6.5V4.9h12l5.9,19.8l6.1-19.8h12.2V38z M87.9,38h-7.8V4.9h7.8V38z"/>
</g>
</svg>
